<svg width="72" height="72" viewBox="0 0 72 72" fill="none" xmlns="http://www.w3.org/2000/svg">
<path d="M66.496 50.3741C69.3901 50.3741 71.7449 47.2692 71.7449 43.4515C71.7449 41.6029 71.1988 39.8627 70.2071 38.556L60.3132 25.503C59.0403 23.8224 57.3462 22.8973 55.5445 22.8973C53.7428 22.8973 52.0486 23.8224 50.7758 25.503L48.5852 28.3927C48.5042 26.2999 47.7983 24.3231 46.6053 22.9248L29.1134 2.4149C27.7861 0.857886 26.077 0 24.3007 0C22.5244 0 20.8153 0.857886 19.488 2.4149L1.99613 22.9248C0.727864 24.4116 0 26.5502 0 28.788C0 33.1156 2.66845 36.6357 5.94904 36.6357H17.3576V40.1787C17.3576 42.7569 17.0973 45.3245 16.5835 47.8111L14.143 59.6124C13.9729 60.4367 13.8861 61.287 13.8861 62.1418C13.8861 64.6743 14.6383 66.9747 15.8579 68.692H4.62871V71.7449H21.1671H27.4355H67.1162V68.692H64.3888C64.6457 67.9883 64.8019 67.2098 64.8019 66.3778C64.8019 65.694 64.7047 65.0238 64.5114 64.3842C63.168 59.9574 62.4875 55.2955 62.4875 50.5268V50.3741H66.496ZM36.6964 15.3901L41.8609 21.4456C41.2117 22.3508 40.3079 22.8973 39.344 22.8973C37.43 22.8973 35.8725 20.8427 35.8725 18.3179C35.8725 17.2356 36.1757 16.2083 36.6964 15.3901ZM14.9982 11.7631C15.0097 11.9142 15.0433 12.0593 15.0433 12.2119C15.0433 14.7367 13.4857 16.7914 11.5718 16.7914C11.3172 16.7914 11.0672 16.7334 10.8208 16.6616L14.9982 11.7631ZM5.52205 33.5507C3.71801 33.2713 2.31435 31.2426 2.31435 28.788C2.31435 27.4203 2.75871 26.1136 3.53402 25.2038L8.87092 18.9468C9.70061 19.5268 10.6264 19.8443 11.5718 19.8443C14.7621 19.8443 17.3576 16.4204 17.3576 12.2119C17.3576 11.267 17.2176 10.3343 16.9619 9.46117L21.0259 4.69548C22.8323 2.57519 25.7703 2.57519 27.5755 4.69548L34.9583 13.3522C34.065 14.7276 33.5581 16.483 33.5581 18.3179C33.5581 22.5264 36.1537 25.9503 39.344 25.9503C40.9733 25.9503 42.5089 25.0237 43.5932 23.4759L45.0674 25.2054C45.8427 26.1136 46.2871 27.4218 46.2871 28.788C46.2871 31.4105 44.6832 33.5476 42.701 33.5827C39.0142 33.5537 35.7973 32.1952 32.3917 30.7542C30.8897 30.1191 29.3634 29.4795 27.7665 28.9331C27.7375 24.7581 25.1582 21.3708 21.9864 21.3708C19.12 21.3708 16.7501 24.1429 16.2965 27.7577C10.2156 28.7575 6.66649 32.2349 5.52205 33.5507ZM31.4972 33.5827H31.2438V33.4774C31.3282 33.5125 31.4127 33.5476 31.4972 33.5827ZM25.3989 28.2293C23.6214 27.7745 21.7387 27.4768 19.672 27.4768C19.3457 27.4768 19.0356 27.4951 18.7208 27.5088C19.1929 25.7198 20.4705 24.4238 21.9864 24.4238C23.7001 24.4238 25.1177 26.0724 25.3989 28.2293ZM9.65432 33.5827C11.4086 32.3646 13.9729 31.1022 17.3576 30.6839V33.5827H9.65432ZM27.4343 68.692H21.1671C18.428 68.692 16.2005 65.7535 16.2005 62.1418C16.2005 61.5587 16.2595 60.9786 16.3752 60.4169L18.8157 48.6141C19.3839 45.8679 19.672 43.0302 19.672 40.1802V30.5298C23.1285 30.5298 26.1128 31.4304 28.9294 32.5295V40.1787C28.9294 43.0287 29.2176 45.8679 29.7857 48.6125L32.2262 60.4169C32.3419 60.9786 32.4009 61.5587 32.4009 62.1418C32.4009 65.7535 30.1734 68.692 27.4343 68.692ZM32.7435 68.692C33.9631 66.9747 34.7153 64.6743 34.7153 62.1418C34.7153 61.287 34.6285 60.4367 34.4584 59.6155L32.0179 47.8127C31.5041 45.326 31.2438 42.7585 31.2438 40.1802V36.6357H42.3365L40.8807 38.556C39.8902 39.8627 39.344 41.6029 39.344 43.4515C39.344 47.2692 41.6989 50.3741 44.593 50.3741H48.6014V50.5268C48.6014 55.2955 47.921 59.9589 46.5764 64.3873C46.3843 65.0254 46.2871 65.694 46.2871 66.3778C46.2871 67.2098 46.4433 67.9883 46.7002 68.692H32.7435ZM60.1732 50.3741V50.5268C60.1732 55.6863 60.9103 60.7298 62.3614 65.5169C62.4447 65.7932 62.4875 66.0832 62.4875 66.3778C62.4875 67.654 61.7007 68.692 60.7333 68.692H50.3557C49.3883 68.692 48.6014 67.654 48.6014 66.3778C48.6014 66.0832 48.6442 65.7916 48.7264 65.5184C50.1786 60.7283 50.9158 55.6848 50.9158 50.5268V50.3741H55.5445V47.3211H44.593C42.9752 47.3211 41.6584 45.584 41.6584 43.4515C41.6584 42.4181 41.9639 41.4472 42.5181 40.7145L52.412 27.6615C54.0853 25.4557 57.0037 25.4557 58.677 27.6615L68.5708 40.7145C69.1251 41.4457 69.4306 42.4181 69.4306 43.4515C69.4306 45.584 68.1137 47.3211 66.496 47.3211H57.8588V50.3741H60.1732Z" fill="#E67F1E"/>
<path d="M58.0162 54.8055L55.7134 55.1032C55.9529 58.3149 56.4505 61.5022 57.1899 64.575L59.3955 63.6515C58.7035 60.7817 58.2395 57.8066 58.0162 54.8055Z" fill="#E67F1E"/>
<path d="M71.7448 68.692H69.4304V71.7449H71.7448V68.692Z" fill="#E67F1E"/>
<path d="M2.31435 68.692H0V71.7449H2.31435V68.692Z" fill="#E67F1E"/>
<path d="M6.94277 27.4768H4.62842V30.5298H6.94277V27.4768Z" fill="#E67F1E"/>
<path d="M24.3007 9.15894H21.9863V12.2119H24.3007V9.15894Z" fill="#E67F1E"/>
<path d="M30.0866 18.3179H27.7722V21.3708H30.0866V18.3179Z" fill="#E67F1E"/>
<path d="M43.9728 27.4768H41.6584V30.5298H43.9728V27.4768Z" fill="#E67F1E"/>
<path d="M46.287 41.2152H43.9727V44.2682H46.287V41.2152Z" fill="#E67F1E"/>
<path d="M53.2304 36.6357H50.916V39.6887H53.2304V36.6357Z" fill="#E67F1E"/>
<path d="M57.8588 41.2152H55.5444V44.2682H57.8588V41.2152Z" fill="#E67F1E"/>
<path d="M64.8017 38.1622H62.4873V41.2152H64.8017V38.1622Z" fill="#E67F1E"/>
<path d="M56.7016 29.0033H54.3872V32.0563H56.7016V29.0033Z" fill="#E67F1E"/>
</svg>
